<svg width="12" height="16" viewBox="0 0 12 16" fill="none" xmlns="http://www.w3.org/2000/svg">
<path d="M0.373274 4.488V4.48823L0.380859 4.48777C0.893112 4.45663 1.33821 4.86311 1.60853 5.279C1.65242 5.3766 1.61708 5.46827 1.55727 5.49917L1.52027 5.51829L1.50213 5.55578C1.50205 5.55595 1.50196 5.55613 1.50188 5.5563C1.50089 5.55633 1.49985 5.55635 1.49875 5.55637L1.47672 5.55649C1.43991 5.55649 1.41998 5.55031 1.40534 5.5419C1.38977 5.53296 1.36879 5.5149 1.3413 5.4726C1.2494 5.32103 1.11979 5.15783 0.959398 5.03108C0.798331 4.90379 0.599371 4.80816 0.373274 4.80816C0.313321 4.80816 0.279568 4.7902 0.260516 4.77051C0.240962 4.7503 0.222412 4.71324 0.222412 4.64808C0.222412 4.56007 0.28356 4.488 0.373274 4.488Z" fill="#436B1C" stroke="white" stroke-width="0.25"/>
<path d="M7.00716 1.87611L7.01188 1.9542L7.08418 1.98409C7.55832 2.18008 7.89737 2.63143 7.83523 3.20932L7.83451 3.20925V3.22269C7.83451 3.39655 7.79165 4.56912 7.7141 5.73107C7.67536 6.31163 7.62812 6.88687 7.57359 7.33164C7.54628 7.55438 7.51746 7.74167 7.48754 7.87958C7.47746 7.92608 7.46754 7.96558 7.45794 7.99812C7.4203 7.98543 7.3788 7.97603 7.33571 7.96878C7.22438 7.95006 7.0826 7.94264 6.92507 7.94123C6.67808 7.93903 6.37678 7.95168 6.06672 7.9647C5.98087 7.9683 5.89434 7.97193 5.80811 7.97529C5.40668 7.9909 5.01056 8.00054 4.6988 7.97613C4.54257 7.9639 4.41401 7.94354 4.31917 7.91387C4.22035 7.88296 4.18351 7.84976 4.17272 7.83101C4.02904 7.55981 3.88561 7.27138 3.74354 6.98568C3.50039 6.49672 3.2612 6.01574 3.03147 5.64267C2.84949 5.34715 2.66152 5.09816 2.46637 4.96204C2.36683 4.8926 2.25705 4.84657 2.13947 4.84657C2.05983 4.84657 1.98405 4.86768 1.91284 4.90736C1.83067 4.79181 1.77417 4.64079 1.77417 4.4699C1.77417 4.26242 1.89165 4.04677 2.03916 3.92482L2.10862 3.8674L2.07609 3.78336C2.00631 3.60307 1.94658 3.44557 1.94658 3.25832C1.94658 2.72065 2.37716 2.27071 2.90564 2.20646L3.07924 2.18536L3.00307 2.02793C2.98281 1.98607 2.98107 1.943 2.98107 1.86857C2.98107 1.43619 3.31135 1.054 3.77792 0.957573L3.87762 0.936967V0.83516C3.87762 0.504356 4.1396 0.21183 4.47676 0.21183C4.60344 0.21183 4.74629 0.293523 4.88294 0.399438L4.97146 0.468047L5.04934 0.387563C5.1588 0.27445 5.32424 0.217097 5.49002 0.245651L5.49298 0.246125C5.6838 0.274294 5.88627 0.451325 5.94248 0.654661L5.9455 0.665588L5.95044 0.675793C5.95816 0.691749 5.96494 0.719071 5.96872 0.758113C5.97236 0.795765 5.97245 0.834484 5.97245 0.870795V0.995795H6.09745C6.58068 0.995795 6.97652 1.36953 7.00716 1.87611Z" fill="#88C057" stroke="white" stroke-width="0.25"/>
<path d="M7.45392 7.45908L7.45365 7.45856L7.44348 7.46513C7.24174 7.59543 7.02288 7.63826 6.83813 7.6168C7.21227 6.20784 7.71621 4.83606 8.38069 3.56571L8.38078 3.56553C8.49436 3.34754 8.6169 3.07422 8.74831 2.7811C8.75899 2.75728 8.76973 2.73333 8.78052 2.70927C8.92496 2.38734 9.08103 2.04277 9.25169 1.71209C9.42248 1.38116 9.60616 1.0676 9.80465 0.807418C10.0039 0.546281 10.2125 0.346294 10.4308 0.23352C10.649 0.120769 10.8355 0.105144 10.9921 0.144577C11.1507 0.184515 11.2922 0.284419 11.4114 0.425767C11.6529 0.71208 11.7816 1.14392 11.7658 1.47055L11.7657 1.47055L11.7656 1.47422C11.7314 3.2773 11.3893 5.08272 10.8748 6.78448C10.8644 6.81645 10.8512 6.85043 10.8345 6.89351C10.8254 6.91713 10.8152 6.9435 10.8038 6.97377C10.7774 7.04385 10.7476 7.12774 10.7174 7.23066L10.2184 7.45623L10.211 7.45959L10.2041 7.46389C9.90136 7.65158 9.50206 7.65467 9.15889 7.46124L9.15893 7.46117L9.15489 7.45908L8.95221 7.35435C8.5665 7.11747 8.07237 7.121 7.65885 7.35319L7.45392 7.45908Z" fill="#EEAF4B" stroke="white" stroke-width="0.25"/>
<path d="M0.782689 7.39181L0.782717 7.39177L0.779535 7.38997L0.414022 7.18394C0.354971 7.13044 0.290892 7.11551 0.231086 7.11551C0.216233 7.11551 0.201199 7.11644 0.187414 7.11761C0.0628851 6.68235 0.13654 6.39953 0.302001 6.19713C0.487159 5.97065 0.806299 5.81955 1.19624 5.69626C1.43043 5.6538 1.62288 5.53209 1.7735 5.37643C2.13508 5.00277 2.46855 4.77827 2.8018 4.80822C3.13161 4.83786 3.52587 5.12437 3.98814 5.9559C4.23263 6.39813 4.30623 7.02957 4.17392 7.58549C3.98037 7.57627 3.80286 7.53609 3.65114 7.43156L3.64463 7.42708L3.63761 7.42345L3.43493 7.31872C3.04859 7.08145 2.55346 7.08538 2.13953 7.3187L2.13928 7.31826L2.13 7.32466L2.02976 7.39372C1.656 7.61732 1.15573 7.61669 0.782689 7.39181Z" fill="#ED3F32" stroke="white" stroke-width="0.25"/>
<path d="M9.19698 6.01425L9.19697 6.01429L9.2 6.01518C9.49969 6.10367 9.84584 5.96925 9.97358 5.61722L9.97431 5.61749L9.97758 5.60398C9.98415 5.57682 10.0052 5.54998 10.044 5.53127C10.0835 5.51221 10.1309 5.50742 10.1696 5.51744C10.1922 5.52328 10.2186 5.54335 10.2378 5.58594C10.2567 5.62759 10.262 5.67793 10.2525 5.7203C10.1004 6.21617 9.59225 6.46616 9.10706 6.31268C8.78544 6.17493 8.44574 6.37457 8.32479 6.70789L8.31729 6.72855V6.75053C8.31729 6.75889 8.31493 6.76767 8.30006 6.77843C8.28279 6.79092 8.24975 6.80371 8.20091 6.80371H8.20071H8.20051H8.2003H8.2001H8.1999H8.1997H8.1995H8.19929H8.19909H8.19889H8.19869H8.19849H8.19828H8.19808H8.19788H8.19768H8.19747H8.19727H8.19707H8.19687H8.19667H8.19646H8.19626H8.19606H8.19586H8.19566H8.19545H8.19525H8.19505H8.19485H8.19465H8.19444H8.19424H8.19404H8.19384H8.19364H8.19343H8.19323H8.19303H8.19283H8.19263H8.19242H8.19222H8.19202H8.19182H8.19162H8.19141H8.19121H8.19101H8.19081H8.19061H8.1904H8.1902H8.19H8.1898H8.18959H8.18939H8.18919H8.18899H8.18879H8.18858H8.18838H8.18818H8.18798H8.18778H8.18757H8.18737H8.18717H8.18697H8.18677H8.18656H8.18636H8.18616H8.18596H8.18576H8.18555H8.18535H8.18515H8.18495H8.18475H8.18454H8.18434H8.18414H8.18394H8.18374H8.18353H8.18333H8.18313H8.18293H8.18273H8.18252H8.18232H8.18212H8.18192H8.18172H8.18151H8.18131H8.18111H8.18091H8.1807H8.1805H8.1803H8.1801H8.1799H8.17969H8.17949H8.17929H8.17909H8.17889H8.17868H8.17848H8.17828H8.17808H8.17788H8.17767H8.17747H8.17727H8.17707H8.17687H8.17666H8.17646H8.17626H8.17606H8.17586H8.17565H8.17545H8.17525H8.17505H8.17485H8.17464H8.17444H8.17424H8.17404H8.17384H8.17363H8.17343H8.17323H8.17303H8.17282H8.17262H8.17242H8.17222H8.17202H8.17181H8.17161H8.17141H8.17121H8.17101H8.1708H8.1706H8.1704H8.1702H8.17H8.16979H8.16959H8.16939H8.16919H8.16899H8.16878H8.16858H8.16838H8.16818H8.16798H8.16777H8.16757H8.16737H8.16717H8.16697H8.16676H8.16656H8.16636H8.16616H8.16596H8.16575H8.16555H8.16535H8.16515H8.16495H8.16474H8.16454H8.16434H8.16414H8.16393H8.16373H8.16353H8.16333H8.16313H8.16292H8.16272H8.16252H8.16232H8.16212H8.16191H8.16171H8.16151H8.16131H8.16111H8.1609H8.1607H8.1605H8.1603H8.1601H8.15989H8.15969H8.15949H8.15929H8.15909H8.15888H8.15868H8.15848H8.15828H8.15808H8.15787H8.15767H8.15747H8.15727H8.15707H8.15686H8.15666H8.15646H8.15626H8.15605H8.15585H8.15565H8.15545H8.15525H8.15504H8.15484H8.15464H8.15444H8.15424H8.15403H8.15383H8.15363H8.15343H8.15323H8.15302H8.15282H8.15262H8.15242H8.15222H8.15201H8.15181H8.15161H8.15141H8.15121H8.151H8.1508H8.1506H8.1504H8.1502H8.14999H8.14979H8.14959H8.14939H8.14919H8.14898H8.14878H8.14858H8.14838H8.14818H8.14797H8.14777H8.14757H8.14737H8.14716H8.14696H8.14676H8.14656H8.14636H8.14615H8.14595H8.14575H8.14555H8.14535H8.14514H8.14494H8.14474H8.14454H8.14434H8.14413H8.14393H8.14373H8.14353H8.14333H8.14312H8.14292H8.14272H8.14252H8.14232H8.14211H8.14191H8.14171H8.14151H8.14131H8.1411H8.1409H8.1407H8.1405H8.1403H8.14009H8.13989H8.13969H8.13949H8.13928H8.13908H8.13888H8.13868H8.13848H8.13827H8.13807H8.13787H8.13767H8.13747H8.13726H8.13706H8.13686H8.13666H8.13646H8.13625H8.13605H8.13585H8.13565H8.13545H8.13524H8.13504H8.13484H8.13464H8.13444H8.13423H8.13403H8.13383H8.13363H8.13343H8.13322H8.13302H8.13282H8.13262H8.13242H8.13221H8.13201H8.13181H8.13161H8.1314H8.1312H8.131H8.1308H8.1306H8.13039H8.13019H8.12999H8.12979H8.12959H8.12938H8.12918H8.12898H8.12878H8.12858H8.12837H8.12817H8.12797H8.12777H8.12757H8.12736H8.12716H8.12696H8.12676H8.12656H8.12635H8.12615H8.12595H8.12575H8.12555H8.12534H8.12514H8.12494H8.12474H8.12454H8.12433H8.12413H8.12393H8.12373H8.12353H8.12332H8.12312H8.12292H8.12272H8.12251H8.12231H8.12211H8.12191H8.12171H8.1215H8.1213H8.1211H8.1209H8.1207H8.12049H8.12029H8.12009H8.11989H8.11969H8.11948H8.11928H8.11908H8.11888H8.11868H8.11847H8.11827H8.11807H8.11787H8.11767H8.11754C8.0978 6.79477 8.07665 6.77489 8.06052 6.73918C8.04171 6.69753 8.03639 6.64718 8.04583 6.60482C8.19853 6.10701 8.71009 5.85701 9.19698 6.01425Z" fill="#A46F3E" stroke="white" stroke-width="0.25"/>
<path d="M9.14806 4.12095L9.15472 4.118L9.161 4.11429C9.36139 3.99596 9.59483 3.99113 9.84286 4.08661C10.1655 4.2274 10.5073 4.02752 10.6287 3.69295L10.6295 3.69321L10.6327 3.67971C10.6393 3.65255 10.6604 3.62571 10.6992 3.607C10.7387 3.58794 10.786 3.58315 10.8248 3.59317C10.8474 3.59901 10.8738 3.61908 10.893 3.66167C10.9118 3.70332 10.9171 3.75366 10.9077 3.79603C10.755 4.29383 10.2434 4.54383 9.75654 4.3866L9.75661 4.38638L9.7494 4.38452C9.67346 4.3649 9.59842 4.35277 9.51927 4.35861C9.43907 4.36453 9.36241 4.38829 9.28144 4.43013L9.27441 4.43376L9.2679 4.43825C9.15501 4.51602 9.0253 4.64272 8.97848 4.78789L8.97244 4.8066V4.81112C8.97019 4.81297 8.967 4.81529 8.9626 4.81802C8.94154 4.83108 8.90455 4.8438 8.85606 4.8438H8.85586H8.85566H8.85545H8.85525H8.85505H8.85485H8.85465H8.85444H8.85424H8.85404H8.85384H8.85364H8.85343H8.85323H8.85303H8.85283H8.85263H8.85242H8.85222H8.85202H8.85182H8.85162H8.85141H8.85121H8.85101H8.85081H8.85061H8.8504H8.8502H8.85H8.8498H8.8496H8.84939H8.84919H8.84899H8.84879H8.84859H8.84838H8.84818H8.84798H8.84778H8.84758H8.84737H8.84717H8.84697H8.84677H8.84656H8.84636H8.84616H8.84596H8.84576H8.84555H8.84535H8.84515H8.84495H8.84475H8.84454H8.84434H8.84414H8.84394H8.84374H8.84353H8.84333H8.84313H8.84293H8.84273H8.84252H8.84232H8.84212H8.84192H8.84172H8.84151H8.84131H8.84111H8.84091H8.84071H8.8405H8.8403H8.8401H8.8399H8.8397H8.83949H8.83929H8.83909H8.83889H8.83869H8.83848H8.83828H8.83808H8.83788H8.83767H8.83747H8.83727H8.83707H8.83687H8.83666H8.83646H8.83626H8.83606H8.83586H8.83565H8.83545H8.83525H8.83505H8.83485H8.83464H8.83444H8.83424H8.83404H8.83384H8.83363H8.83343H8.83323H8.83303H8.83283H8.83262H8.83242H8.83222H8.83202H8.83182H8.83161H8.83141H8.83121H8.83101H8.83081H8.8306H8.8304H8.8302H8.83H8.82979H8.82959H8.82939H8.82919H8.82899H8.82878H8.82858H8.82838H8.82818H8.82798H8.82777H8.82757H8.82737H8.82717H8.82697H8.82676H8.82656H8.82636H8.82616H8.82596H8.82575H8.82555H8.82535H8.82515H8.82495H8.82474H8.82454H8.82434H8.82414H8.82394H8.82373H8.82353H8.82333H8.82313H8.82293H8.82272H8.82252H8.82232H8.82212H8.82192H8.82171H8.82151H8.82131H8.82111H8.8209H8.8207H8.8205H8.8203H8.8201H8.81989H8.81969H8.81949H8.81929H8.81909H8.81888H8.81868H8.81848H8.81828H8.81808H8.81787H8.81767H8.81747H8.81727H8.81707H8.81686H8.81666H8.81646H8.81626H8.81606H8.81585H8.81565H8.81545H8.81525H8.81505H8.81484H8.81464H8.81444H8.81424H8.81404H8.81383H8.81363H8.81343H8.81323H8.81302H8.81282H8.81262H8.81242H8.81222H8.81201H8.81181H8.81161H8.81141H8.81121H8.811H8.8108H8.8106H8.8104H8.8102H8.80999H8.80979H8.80959H8.80939H8.80919H8.80898H8.80878H8.80858H8.80838H8.80818H8.80797H8.80777H8.80757H8.80737H8.80717H8.80696H8.80676H8.80656H8.80636H8.80616H8.80595H8.80575H8.80555H8.80535H8.80514H8.80494H8.80474H8.80454H8.80434H8.80413H8.80393H8.80373H8.80353H8.80333H8.80312H8.80292H8.80272H8.80252H8.80232H8.80211H8.80191H8.80171H8.80151H8.80131H8.8011H8.8009H8.8007H8.8005H8.8003H8.80009H8.79989H8.79969H8.79949H8.79929H8.79908H8.79888H8.79868H8.79848H8.79828H8.79807H8.79787H8.79767H8.79747H8.79727H8.79706H8.79686H8.79666H8.79646H8.79625H8.79605H8.79585H8.79565H8.79545H8.79524H8.79504H8.79484H8.79464H8.79444H8.79423H8.79403H8.79383H8.79363H8.79343H8.79322H8.79302H8.79282H8.79262H8.79242H8.79221H8.79201H8.79181H8.79161H8.79141H8.7912H8.791H8.7908H8.7906H8.7904H8.79019H8.78999H8.78979H8.78959H8.78939H8.78918H8.78898H8.78878H8.78858H8.78837H8.78817H8.78797H8.78777H8.78757H8.78736H8.78716H8.78696H8.78676H8.78656H8.78635H8.78615H8.78595H8.78575H8.78555H8.78534H8.78514H8.78494H8.78474H8.78454H8.78433H8.78413H8.78393H8.78373H8.78353H8.78332H8.78312H8.78292H8.78272H8.78252H8.78231H8.78211H8.78191H8.78171H8.78151H8.7813H8.7811H8.7809H8.7807H8.7805H8.78029H8.78009H8.77989H8.77969H8.77948H8.77928H8.77908H8.77888H8.77868H8.77847H8.77827H8.77807H8.77787H8.77767H8.77746H8.77726H8.77706H8.77686H8.77666H8.77645H8.77625H8.77605H8.77585H8.77565H8.77544H8.77524H8.77504H8.77484H8.77464H8.77443H8.77423H8.77403H8.77383H8.77363H8.77342H8.77322H8.77302H8.77282H8.77269C8.75295 4.83487 8.7318 4.81498 8.71567 4.77927C8.6973 4.73858 8.6918 4.68958 8.70036 4.64784C8.79574 4.38936 8.94768 4.2097 9.14806 4.12095ZM8.9773 4.80618C8.97736 4.80619 8.97709 4.80667 8.97628 4.80756L8.9773 4.80618Z" fill="#A46F3E" stroke="white" stroke-width="0.25"/>
<path d="M10.6899 2.12929L10.6984 2.12633L10.7065 2.12216C10.8049 2.07135 10.8959 1.97392 10.9405 1.83567L10.9409 1.83578L10.9431 1.82669C10.9496 1.79954 10.9707 1.7727 11.0095 1.75399C11.049 1.73493 11.0963 1.73014 11.1351 1.74015C11.1577 1.74599 11.1841 1.76607 11.2033 1.80866C11.2223 1.85073 11.2276 1.90167 11.2177 1.9443C11.1593 2.15323 11.0143 2.30534 10.8331 2.39894C10.6491 2.49404 10.4178 2.517 10.2582 2.43458L10.2585 2.43418L10.2486 2.43011C9.99451 2.32507 9.71997 2.48903 9.63363 2.7567L9.62759 2.77541V2.79507C9.62759 2.80343 9.62524 2.81221 9.61036 2.82297C9.59309 2.83546 9.56006 2.84825 9.51121 2.84825H9.51101H9.51081H9.51061H9.5104H9.5102H9.51H9.5098H9.5096H9.50939H9.50919H9.50899H9.50879H9.50859H9.50838H9.50818H9.50798H9.50778H9.50757H9.50737H9.50717H9.50697H9.50677H9.50656H9.50636H9.50616H9.50596H9.50576H9.50555H9.50535H9.50515H9.50495H9.50475H9.50454H9.50434H9.50414H9.50394H9.50374H9.50353H9.50333H9.50313H9.50293H9.50273H9.50252H9.50232H9.50212H9.50192H9.50172H9.50151H9.50131H9.50111H9.50091H9.50071H9.5005H9.5003H9.5001H9.4999H9.49969H9.49949H9.49929H9.49909H9.49889H9.49868H9.49848H9.49828H9.49808H9.49788H9.49767H9.49747H9.49727H9.49707H9.49687H9.49666H9.49646H9.49626H9.49606H9.49586H9.49565H9.49545H9.49525H9.49505H9.49485H9.49464H9.49444H9.49424H9.49404H9.49384H9.49363H9.49343H9.49323H9.49303H9.49283H9.49262H9.49242H9.49222H9.49202H9.49182H9.49161H9.49141H9.49121H9.49101H9.4908H9.4906H9.4904H9.4902H9.49H9.48979H9.48959H9.48939H9.48919H9.48899H9.48878H9.48858H9.48838H9.48818H9.48798H9.48777H9.48757H9.48737H9.48717H9.48697H9.48676H9.48656H9.48636H9.48616H9.48596H9.48575H9.48555H9.48535H9.48515H9.48495H9.48474H9.48454H9.48434H9.48414H9.48394H9.48373H9.48353H9.48333H9.48313H9.48293H9.48272H9.48252H9.48232H9.48212H9.48191H9.48171H9.48151H9.48131H9.48111H9.4809H9.4807H9.4805H9.4803H9.4801H9.47989H9.47969H9.47949H9.47929H9.47909H9.47888H9.47868H9.47848H9.47828H9.47808H9.47787H9.47767H9.47747H9.47727H9.47707H9.47686H9.47666H9.47646H9.47626H9.47606H9.47585H9.47565H9.47545H9.47525H9.47505H9.47484H9.47464H9.47444H9.47424H9.47404H9.47383H9.47363H9.47343H9.47323H9.47302H9.47282H9.47262H9.47242H9.47222H9.47201H9.47181H9.47161H9.47141H9.47121H9.471H9.4708H9.4706H9.4704H9.4702H9.46999H9.46979H9.46959H9.46939H9.46919H9.46898H9.46878H9.46858H9.46838H9.46818H9.46797H9.46777H9.46757H9.46737H9.46717H9.46696H9.46676H9.46656H9.46636H9.46616H9.46595H9.46575H9.46555H9.46535H9.46514H9.46494H9.46474H9.46454H9.46434H9.46413H9.46393H9.46373H9.46353H9.46333H9.46312H9.46292H9.46272H9.46252H9.46232H9.46211H9.46191H9.46171H9.46151H9.46131H9.4611H9.4609H9.4607H9.4605H9.4603H9.46009H9.45989H9.45969H9.45949H9.45929H9.45908H9.45888H9.45868H9.45848H9.45828H9.45807H9.45787H9.45767H9.45747H9.45727H9.45706H9.45686H9.45666H9.45646H9.45625H9.45605H9.45585H9.45565H9.45545H9.45524H9.45504H9.45484H9.45464H9.45444H9.45423H9.45403H9.45383H9.45363H9.45343H9.45322H9.45302H9.45282H9.45262H9.45242H9.45221H9.45201H9.45181H9.45161H9.45141H9.4512H9.451H9.4508H9.4506H9.4504H9.45019H9.44999H9.44979H9.44959H9.44939H9.44918H9.44898H9.44878H9.44858H9.44838H9.44817H9.44797H9.44777H9.44757H9.44736H9.44716H9.44696H9.44676H9.44656H9.44635H9.44615H9.44595H9.44575H9.44555H9.44534H9.44514H9.44494H9.44474H9.44454H9.44433H9.44413H9.44393H9.44373H9.44353H9.44332H9.44312H9.44292H9.44272H9.44252H9.44231H9.44211H9.44191H9.44171H9.44151H9.4413H9.4411H9.4409H9.4407H9.4405H9.44029H9.44009H9.43989H9.43969H9.43949H9.43928H9.43908H9.43888H9.43868H9.43847H9.43827H9.43807H9.43787H9.43767H9.43746H9.43726H9.43706H9.43686H9.43666H9.43645H9.43625H9.43605H9.43585H9.43565H9.43544H9.43524H9.43504H9.43484H9.43464H9.43443H9.43423H9.43403H9.43383H9.43363H9.43342H9.43322H9.43302H9.43282H9.43262H9.43241H9.43221H9.43201H9.43181H9.43161H9.4314H9.4312H9.431H9.4308H9.43059H9.43039H9.43019H9.42999H9.42979H9.42958H9.42938H9.42918H9.42898H9.42878H9.42857H9.42837H9.42817H9.42797H9.42784C9.4081 2.83932 9.38695 2.81943 9.37082 2.78372C9.35234 2.74278 9.34688 2.69342 9.35567 2.65152C9.50875 2.21883 9.95515 2.01013 10.3341 2.12982C10.3934 2.15014 10.4504 2.16284 10.5112 2.16284C10.5726 2.16284 10.63 2.14992 10.6899 2.12929Z" fill="#A46F3E" stroke="white" stroke-width="0.25"/>
<path d="M4.95492 4.08317L4.96292 4.07284L4.9686 4.06109C5.03906 3.91547 5.02643 3.7674 4.96327 3.64279C4.90178 3.52149 4.79411 3.42413 4.67208 3.36108C4.6332 3.34099 4.58731 3.29713 4.56259 3.224L4.53005 3.08948C4.50806 2.96923 4.5796 2.86582 4.67448 2.84621L4.67449 2.84625L4.67743 2.84557L6.36545 2.45396C6.47255 2.43254 6.57491 2.49899 6.59543 2.60501L6.59529 2.60504L6.59665 2.61065L6.63114 2.75319L6.6308 2.75327L6.63367 2.76217C6.65226 2.8198 6.63479 2.87963 6.59384 2.92195L6.59329 2.92142L6.58482 2.93236C6.49534 3.04794 6.45347 3.20387 6.46418 3.34778C6.47495 3.4924 6.54186 3.64646 6.69525 3.72572C6.70609 3.73132 6.71697 3.73693 6.7279 3.74256C7.05915 3.91335 7.42821 4.10363 7.61667 4.53896C7.1933 5.48823 6.83208 6.50102 6.56218 7.54736C6.51753 7.52752 6.46336 7.50025 6.40471 7.46389L6.40491 7.46356L6.39622 7.45907L6.19354 7.35435C5.80783 7.11747 5.31369 7.121 4.90018 7.35319L4.84212 7.38319L4.46156 5.51516C4.34265 4.86771 4.63866 4.4885 4.90744 4.14417C4.92339 4.12373 4.93925 4.10341 4.95492 4.08317Z" fill="#DAE7EF" stroke="white" stroke-width="0.25"/>
<path d="M4.39336 3.20278L4.39373 3.20272L4.39145 3.1933L4.35696 3.05076L4.35502 3.04273L4.35204 3.03503C4.33459 2.98993 4.34021 2.92302 4.37805 2.85783C4.41536 2.79358 4.47304 2.75033 4.53255 2.74008L4.53258 2.74024L4.53883 2.73884L6.43194 2.31199C6.57046 2.28977 6.70968 2.38683 6.73275 2.5299L6.73238 2.52995L6.73466 2.53938L6.76915 2.68192L6.77109 2.68995L6.77407 2.69765C6.79135 2.74231 6.78595 2.79943 6.7495 2.85906C6.71397 2.9172 6.65347 2.96861 6.58004 2.99548L4.69417 3.42069C4.55565 3.44291 4.41643 3.34585 4.39336 3.20278Z" fill="white" stroke="white" stroke-width="0.25"/>
<path d="M10.697 14.3323L10.6969 14.3323L10.6968 14.3347C10.6654 14.9837 10.1314 15.4986 9.51132 15.4986H1.78718C1.16709 15.4986 0.633095 14.9837 0.601694 14.3347L0.601712 14.3347L0.601576 14.3326L0.153604 7.45975C0.154654 7.41364 0.176562 7.38609 0.195573 7.37486C0.21188 7.36523 0.233923 7.36183 0.262334 7.38385L0.269563 7.38945L0.277529 7.39394L0.655288 7.60687C1.10859 7.87928 1.70911 7.87896 2.16206 7.60591L2.16218 7.60611L2.16845 7.60179L2.26714 7.53379C2.60923 7.34307 3.00623 7.34701 3.30752 7.53382L3.30732 7.53415L3.31601 7.53864L3.52094 7.64452C3.93445 7.87671 4.42859 7.88024 4.8143 7.64336L5.01698 7.53864L5.01702 7.53871L5.02098 7.53648C5.36415 7.34304 5.76345 7.34614 6.06614 7.53382L6.06594 7.53415L6.07463 7.53864L6.27956 7.64452C6.69307 7.87671 7.18721 7.88024 7.57292 7.64336L7.7756 7.53864L7.77564 7.53871L7.7796 7.53648C8.12277 7.34304 8.52207 7.34614 8.82476 7.53382L8.82456 7.53415L8.83325 7.53864L9.03817 7.64452C9.45078 7.8762 9.94366 7.88023 10.329 7.64492L11.1763 7.25576L10.697 14.3323Z" fill="#FBD490" stroke="white" stroke-width="0.25"/>
<path d="M3.33886 11.8638H1.40782C1.38098 11.8638 1.34261 11.8486 1.30799 11.8128C1.27363 11.7773 1.25696 11.7358 1.25696 11.7038C1.25696 11.6717 1.27363 11.6302 1.30799 11.5947C1.34261 11.5589 1.38098 11.5437 1.40782 11.5437H3.33886C3.36569 11.5437 3.40406 11.5589 3.43868 11.5947C3.47305 11.6302 3.48972 11.6717 3.48972 11.7038C3.48972 11.7358 3.47305 11.7773 3.43868 11.8128C3.40406 11.8486 3.36569 11.8638 3.33886 11.8638Z" fill="#E0B877" stroke="white" stroke-width="0.25"/>
<path d="M3.89058 13.0041H1.40782C1.38098 13.0041 1.34261 12.9889 1.30799 12.9531C1.27363 12.9176 1.25696 12.8761 1.25696 12.8441C1.25696 12.812 1.27363 12.7705 1.30799 12.735C1.34261 12.6992 1.38098 12.684 1.40782 12.684H3.89058C3.91742 12.684 3.95579 12.6992 3.99041 12.735C4.02477 12.7705 4.04144 12.812 4.04144 12.8441C4.04144 12.8761 4.02477 12.9176 3.99041 12.9531C3.95579 12.9889 3.91742 13.0041 3.89058 13.0041Z" fill="#E0B877" stroke="white" stroke-width="0.25"/>
<path d="M4.4423 14.1445H1.40782C1.38098 14.1445 1.34261 14.1292 1.30799 14.0935C1.27363 14.0579 1.25696 14.0164 1.25696 13.9844C1.25696 13.9523 1.27363 13.9108 1.30799 13.8753C1.34261 13.8395 1.38098 13.8243 1.40782 13.8243H4.4423C4.46914 13.8243 4.50751 13.8395 4.54213 13.8753C4.5765 13.9108 4.59316 13.9523 4.59316 13.9844C4.59316 14.0164 4.5765 14.0579 4.54213 14.0935C4.50751 14.1292 4.46914 14.1445 4.4423 14.1445Z" fill="#E0B877" stroke="white" stroke-width="0.25"/>
<path d="M6.09748 14.1445H5.54576C5.51892 14.1445 5.48055 14.1292 5.44593 14.0935C5.41156 14.0579 5.3949 14.0164 5.3949 13.9844C5.3949 13.9523 5.41156 13.9108 5.44593 13.8753C5.48055 13.8395 5.51892 13.8243 5.54576 13.8243H6.09748C6.12432 13.8243 6.16269 13.8395 6.19731 13.8753C6.23168 13.9108 6.24834 13.9523 6.24834 13.9844C6.24834 14.0164 6.23168 14.0579 6.19731 14.0935C6.16269 14.1292 6.12432 14.1445 6.09748 14.1445Z" fill="#E0B877" stroke="white" stroke-width="0.25"/>
</svg>
